<svg width="103" height="25" viewBox="0 0 103 25" fill="none" xmlns="http://www.w3.org/2000/svg">
<path d="M9.42531 24.3791C8.288 24.3791 6.84531 24.1685 5.09722 23.7473C4.00204 24.0421 2.98057 24.1896 2.03282 24.1896C1.08506 24.1896 0.537469 24.158 0.390041 24.0948C0.537469 22.8311 1.15878 19.7246 2.25396 14.7752C3.3702 9.80474 3.92833 6.68767 3.92833 5.424C3.92833 5.17127 3.79143 4.83429 3.51763 4.41306C3.24384 3.99184 2.97004 3.6338 2.69624 3.33894L2.28555 2.89665L2.38033 2.42278C5.13935 1.85412 8.10898 1.5698 11.2892 1.5698C13.0373 1.5698 14.4695 1.99102 15.5857 2.83347C16.723 3.65486 17.2917 4.81322 17.2917 6.30857C17.2917 9.19396 15.5331 11.1948 12.0158 12.311C13.4269 12.4795 14.6064 13.0166 15.5541 13.9222C16.5229 14.8068 17.0073 16.0599 17.0073 17.6816C17.0073 19.6614 16.2913 21.2726 14.8591 22.5152C13.4269 23.7578 11.6157 24.3791 9.42531 24.3791ZM8.85665 13.164C8.26694 13.164 7.74041 13.2167 7.27706 13.322C6.37143 17.3236 5.79224 20.1142 5.53951 21.6938C6.06604 22.0518 6.88743 22.2309 8.00367 22.2309C9.14098 22.2309 10.1098 21.7886 10.9101 20.904C11.7104 19.9984 12.1106 18.7031 12.1106 17.0182C12.1106 14.4487 11.026 13.164 8.85665 13.164ZM10.6258 3.52849C9.82547 3.52849 9.35159 3.6022 9.20416 3.74963C8.90931 5.64514 8.4249 8.13037 7.75094 11.2053C8.59339 11.2053 9.1831 11.1527 9.52008 11.0473C9.85706 10.942 10.1519 10.8051 10.4047 10.6367C10.6784 10.4682 10.9838 10.2049 11.3208 9.84686C12.058 9.06759 12.4265 7.82498 12.4265 6.11902C12.4265 4.392 11.8263 3.52849 10.6258 3.52849ZM23.0357 24.3791C21.5825 24.3791 20.4452 23.8736 19.6238 22.8627C18.8024 21.8307 18.3917 20.3985 18.3917 18.5662C18.3917 16.2284 19.013 14.2171 20.2556 12.5322C21.5193 10.8473 23.2569 10.0048 25.4683 10.0048L26.6056 10.068C26.9636 9.87845 27.3638 9.78367 27.8061 9.78367C29.4699 9.78367 30.3018 11.3527 30.3018 14.4909C31.1653 14.4487 32.0394 14.3329 32.924 14.1433L33.4294 14.017L33.619 15.2491C32.924 15.5439 31.9867 15.8072 30.8073 16.0389L30.1755 16.1652C29.7753 18.3767 28.9644 20.3038 27.7429 21.9465C26.5213 23.5682 24.9523 24.3791 23.0357 24.3791ZM24.7417 21.6622C25.6262 21.6622 26.416 21.0936 27.1111 19.9562C27.8271 18.8189 28.3221 17.6184 28.5959 16.3548C26.3423 16.3548 25.2155 15.5123 25.2155 13.8274C25.2155 13.1535 25.3524 12.5216 25.6262 11.9319L25.7842 11.616C25.7 11.5739 25.5946 11.5528 25.4683 11.5528C25.3419 11.5528 25.2471 11.5739 25.184 11.616C24.6574 11.953 24.1625 12.7428 23.6991 13.9854C23.2358 15.228 23.0041 16.6496 23.0041 18.2503C23.0041 20.5249 23.5833 21.6622 24.7417 21.6622ZM41.2625 10.921C41.3046 10.8789 41.4204 10.6051 41.61 10.0996C42.5999 10.0996 43.9267 10.3944 45.5906 10.9842C45.064 12.7322 44.6428 14.5646 44.3269 16.4811C44.011 18.3767 43.853 19.7351 43.853 20.5565C43.853 21.3568 43.9372 21.757 44.1057 21.757C44.2321 21.757 44.6955 21.5569 45.4958 21.1567L45.8749 20.9672L46.4435 22.0729C46.254 22.2414 46.0012 22.452 45.6853 22.7047C45.3905 22.9575 44.8218 23.305 43.9794 23.7473C43.1369 24.1685 42.3787 24.3791 41.7048 24.3791C40.399 24.3791 39.6408 23.7894 39.4301 22.61C38.0822 23.7894 36.8607 24.3791 35.7655 24.3791C34.6914 24.3791 33.7752 23.9579 33.017 23.1154C32.2799 22.273 31.9113 20.9461 31.9113 19.1349C31.9113 16.3127 32.4905 14.0907 33.6488 12.469C34.8072 10.8262 36.2078 10.0048 37.8506 10.0048C39.03 10.0048 40.1673 10.3102 41.2625 10.921ZM37.661 21.6938C38.1665 21.6938 38.7351 21.4937 39.367 21.0936C39.5144 18.1239 40.0093 15.1859 40.8518 12.2794C40.2199 12.0056 39.6829 11.8687 39.2406 11.8687C38.4824 11.8687 37.8295 12.6164 37.2819 14.1118C36.7554 15.586 36.4921 17.2183 36.4921 19.0085C36.4921 20.7987 36.8817 21.6938 37.661 21.6938ZM56.9152 10.3839C56.8731 10.9104 56.6941 11.5212 56.3782 12.2162C55.5779 12.132 54.8196 12.0899 54.1036 12.0899H53.5349C52.5661 16.7865 52.0817 19.714 52.0817 20.8724C52.0817 21.4832 52.2081 21.7886 52.4608 21.7886C52.7346 21.7886 53.4401 21.5253 54.5774 20.9988L55.1461 22.0413C53.2716 23.5998 51.5341 24.3791 49.9334 24.3791C49.1963 24.3791 48.5855 24.1474 48.1011 23.6841C47.6378 23.2207 47.4061 22.61 47.4061 21.8518C47.4061 21.0725 47.4903 20.1984 47.6588 19.2296C47.8484 18.2608 48.1011 17.0814 48.417 15.6913C48.733 14.2802 48.9646 13.1429 49.1121 12.2794C48.3328 12.3426 47.7536 12.4058 47.3745 12.469C47.3324 12.2162 47.3113 11.8793 47.3113 11.458C47.3113 11.0158 47.3429 10.6577 47.4061 10.3839H49.3964C49.5649 9.24661 49.6491 8.17249 49.6491 7.16155L49.6175 6.1822V6.08743C51.2603 5.51878 52.8083 5.23445 54.2615 5.23445C54.3458 5.65567 54.3879 6.1822 54.3879 6.81404C54.3879 7.44588 54.2089 8.63584 53.8508 10.3839H56.9152ZM64.5264 1.9489C64.5264 3.54955 63.9893 6.68767 62.9152 11.3633C64.1789 10.4576 65.3162 10.0048 66.3271 10.0048C67.3591 10.0048 68.2332 10.4366 68.9493 11.3001C69.6864 12.1425 70.055 13.4378 70.055 15.1859C70.055 18.1134 69.4758 20.3775 68.3174 21.9781C67.1801 23.5788 65.7901 24.3791 64.1473 24.3791C63.5365 24.3791 62.9152 24.3054 62.2834 24.158C61.6726 24.0105 61.2093 23.8526 60.8933 23.6841L60.4195 23.4629C59.0715 23.9263 57.7552 24.158 56.4705 24.158C56.3441 24.0527 56.2809 23.5472 56.2809 22.6416C56.2809 21.7149 56.8706 18.682 58.0501 13.5431C59.2295 8.3831 59.8192 4.85535 59.8192 2.95984C59.8192 2.62286 59.7666 2.1911 59.6613 1.66457C61.304 1.09592 62.8731 0.811592 64.3684 0.811592C64.4737 1.10645 64.5264 1.48555 64.5264 1.9489ZM64.2421 12.6901C63.8419 12.6901 63.2417 12.8797 62.4413 13.2588C61.4725 17.3447 60.946 20.2722 60.8618 22.0413C61.4936 22.3151 62.0938 22.452 62.6625 22.452C63.4628 22.452 64.1262 21.7149 64.6528 20.2406C65.2004 18.7663 65.4742 17.1446 65.4742 15.3754C65.4742 13.5852 65.0635 12.6901 64.2421 12.6901ZM71.7757 21.6306C71.7757 20.725 72.0495 19.1875 72.5971 17.0182C73.1447 14.8278 73.4185 13.4904 73.4185 13.006C73.4185 12.5006 73.0394 11.8371 72.2812 11.0158L72.3128 10.6051C73.745 10.3102 75.6299 10.1628 77.9677 10.1628C78.073 10.4366 78.1257 10.9315 78.1257 11.6476C78.1257 12.3637 77.8308 13.8906 77.2411 16.2284C76.6514 18.5662 76.3566 20.0194 76.3566 20.5881C76.3566 21.1567 76.5672 21.4411 76.9884 21.4411C77.5992 21.4411 78.3047 21.2199 79.105 20.7776C79.1893 20.2722 79.3999 19.3033 79.7369 17.8712C80.4951 14.5014 80.8742 12.0899 80.8742 10.6367C81.6113 10.3418 82.9382 10.1944 84.8548 10.1944H85.455C85.455 11.1842 85.1601 13.1219 84.5704 16.0073C83.9807 18.8716 83.6859 20.5565 83.6859 21.062C83.6859 21.5464 83.7912 21.7886 84.0018 21.7886C84.1281 21.7886 84.7284 21.5358 85.8025 21.0304L86.4028 22.0413C84.5283 23.5998 82.8855 24.3791 81.4744 24.3791C80.8005 24.3791 80.2213 24.1896 79.7369 23.8104C79.2735 23.4313 79.0103 22.9364 78.9471 22.3256C77.2411 23.7157 75.6931 24.4107 74.3031 24.4107C73.5659 24.4107 72.9552 24.1685 72.4708 23.6841C72.0074 23.1997 71.7757 22.5152 71.7757 21.6306ZM102.263 22.0729C100.472 23.6104 98.8928 24.3791 97.5238 24.3791C96.1759 24.3791 95.3966 23.7051 95.186 22.3572C94.5542 22.9891 93.8486 23.484 93.0694 23.842C92.2901 24.2001 91.6056 24.3791 91.0159 24.3791C90.005 24.3791 89.1415 23.9368 88.4254 23.0522C87.7093 22.1677 87.3513 20.7987 87.3513 18.9453C87.3513 16.1652 87.941 13.9854 89.1204 12.4058C90.2998 10.8051 91.6267 10.0048 93.101 10.0048C94.5963 10.0048 95.8495 10.3418 96.8604 11.0158C97.5133 7.60384 97.8397 4.91853 97.8397 2.95984L97.6818 1.63298C99.2614 1.08539 100.809 0.811592 102.326 0.811592C102.494 1.16963 102.579 1.58033 102.579 2.04367C102.579 3.58114 102.115 6.70873 101.188 11.4264C100.262 16.1231 99.7984 19.3139 99.7984 20.9988C99.7984 21.5042 99.9143 21.757 100.146 21.757C100.272 21.757 100.672 21.5569 101.346 21.1567L101.662 20.9672L102.263 22.0729ZM94.649 11.8687C93.9118 11.8687 93.2695 12.5953 92.7219 14.0486C92.1953 15.5018 91.9321 16.9445 91.9321 18.3767C91.9321 19.7878 92.0268 20.6934 92.2164 21.0936C92.427 21.4937 92.7324 21.6938 93.1326 21.6938C93.8276 21.6938 94.5121 21.4095 95.186 20.8408C95.2492 19.9984 95.7231 17.1972 96.6077 12.4374C95.8916 12.0583 95.2387 11.8687 94.649 11.8687Z" fill="white"/>
</svg>
