<svg width="242" height="56" viewBox="0 0 242 56" fill="none" xmlns="http://www.w3.org/2000/svg">
<path d="M21.6416 55.8961C18.9535 55.8961 15.5435 55.3982 11.4116 54.4026C8.823 55.0996 6.40862 55.448 4.16847 55.448C1.92833 55.448 0.634018 55.3734 0.285551 55.224C0.634018 52.2372 2.10256 44.8944 4.69118 33.1959C7.32957 21.4476 8.64877 14.08 8.64877 11.0931C8.64877 10.4957 8.32519 9.69922 7.67804 8.7036C7.03089 7.70798 6.38373 6.8617 5.73658 6.16477L4.76585 5.11936L4.98986 3.99929C11.5112 2.6552 18.5303 1.98316 26.0473 1.98316C30.1791 1.98316 33.5642 2.97878 36.2026 4.97002C38.8908 6.91148 40.2349 9.64944 40.2349 13.1839C40.2349 20.0039 36.0781 24.7331 27.7647 27.3715C31.1 27.7698 33.8878 29.0392 36.1279 31.1798C38.4179 33.2706 39.5628 36.2325 39.5628 40.0657C39.5628 44.7451 37.8703 48.5534 34.4851 51.4904C31.1 54.4275 26.8189 55.8961 21.6416 55.8961ZM20.2975 29.3876C18.9037 29.3876 17.6591 29.5121 16.564 29.761C14.4234 39.2194 13.0544 45.8154 12.457 49.549C13.7016 50.3953 15.643 50.8184 18.2814 50.8184C20.9696 50.8184 23.2595 49.773 25.1512 47.6822C27.0429 45.5416 27.9887 42.4801 27.9887 38.4976C27.9887 32.4243 25.425 29.3876 20.2975 29.3876ZM24.4792 6.6128C22.5875 6.6128 21.4674 6.78703 21.1189 7.1355C20.422 11.6158 19.277 17.49 17.684 24.758C19.6753 24.758 21.0691 24.6335 21.8656 24.3846C22.6621 24.1357 23.3591 23.8122 23.9565 23.4139C24.6036 23.0157 25.3254 22.3934 26.1219 21.5471C27.8643 19.7052 28.7354 16.7681 28.7354 12.7359C28.7354 8.65382 27.3167 6.6128 24.4792 6.6128ZM53.8117 55.8961C50.3768 55.8961 47.6886 54.7013 45.7471 52.3118C43.8057 49.8725 42.835 46.4874 42.835 42.1565C42.835 36.6308 44.3035 31.8767 47.2406 27.8942C50.2274 23.9117 54.3344 21.9205 59.5614 21.9205L62.2496 22.0698C63.0958 21.6218 64.0417 21.3978 65.0871 21.3978C69.0198 21.3978 70.9861 25.1065 70.9861 32.5238C73.0272 32.4243 75.0931 32.1505 77.1839 31.7025L78.3786 31.4038L78.8267 34.316C77.1839 35.0129 74.9686 35.6352 72.1809 36.1828L70.6875 36.4814C69.7416 41.7085 67.825 46.2634 64.9377 50.1463C62.0504 53.9795 58.3418 55.8961 53.8117 55.8961ZM57.8439 49.4743C59.9347 49.4743 61.8015 48.1302 63.4443 45.442C65.1369 42.7539 66.3067 39.9163 66.9539 36.9295C61.6273 36.9295 58.964 34.9382 58.964 30.9557C58.964 29.3627 59.2876 27.8693 59.9347 26.4754L60.3081 25.7287C60.109 25.6292 59.8601 25.5794 59.5614 25.5794C59.2627 25.5794 59.0387 25.6292 58.8893 25.7287C57.6448 26.5252 56.475 28.392 55.3798 31.3291C54.2846 34.2662 53.737 37.6264 53.737 41.4098C53.737 46.7861 55.106 49.4743 57.8439 49.4743ZM96.8931 24.086C96.9927 23.9864 97.2665 23.3392 97.7145 22.1445C100.054 22.1445 103.19 22.8414 107.123 24.2353C105.879 28.3671 104.883 32.6981 104.136 37.2282C103.39 41.7085 103.016 44.9193 103.016 46.8608C103.016 48.7525 103.215 49.6983 103.614 49.6983C103.912 49.6983 105.007 49.2254 106.899 48.2796L107.795 47.8315L109.139 50.445C108.691 50.8433 108.094 51.3411 107.347 51.9385C106.65 52.5358 105.306 53.3572 103.315 54.4026C101.324 55.3982 99.5315 55.8961 97.9385 55.8961C94.8521 55.8961 93.06 54.5022 92.5622 51.7144C89.3762 54.5022 86.4889 55.8961 83.9003 55.8961C81.3614 55.8961 79.1959 54.9004 77.4038 52.9092C75.6615 50.918 74.7903 47.7817 74.7903 43.5006C74.7903 36.8299 76.1593 31.578 78.8973 27.7449C81.6352 23.8619 84.9457 21.9205 88.8286 21.9205C91.6163 21.9205 94.3045 22.6423 96.8931 24.086ZM88.3806 49.549C89.5753 49.549 90.9194 49.0761 92.4128 48.1302C92.7613 41.1111 93.9311 34.1666 95.9224 27.2968C94.429 26.6497 93.1595 26.3261 92.1141 26.3261C90.322 26.3261 88.7788 28.0933 87.4845 31.6278C86.24 35.1125 85.6177 38.9705 85.6177 43.2019C85.6177 47.4333 86.5387 49.549 88.3806 49.549ZM133.891 22.8165C133.791 24.0611 133.368 25.5047 132.621 27.1475C130.729 26.9484 128.937 26.8488 127.245 26.8488H125.901C123.611 37.95 122.466 44.8696 122.466 47.6075C122.466 49.0512 122.764 49.773 123.362 49.773C124.009 49.773 125.677 49.1507 128.365 47.9062L129.709 50.3704C125.278 54.0542 121.171 55.8961 117.388 55.8961C115.646 55.8961 114.202 55.3485 113.057 54.2533C111.962 53.1581 111.414 51.7144 111.414 49.9223C111.414 48.0804 111.614 46.0145 112.012 43.7246C112.46 41.4347 113.057 38.6469 113.804 35.3614C114.551 32.026 115.098 29.3379 115.447 27.2968C113.605 27.4462 112.236 27.5955 111.34 27.7449C111.24 27.1475 111.19 26.351 111.19 25.3554C111.19 24.31 111.265 23.4637 111.414 22.8165H116.119C116.517 20.1284 116.716 17.5895 116.716 15.2L116.641 12.8852V12.6612C120.524 11.3171 124.183 10.6451 127.618 10.6451C127.817 11.6407 127.917 12.8852 127.917 14.3786C127.917 15.8721 127.494 18.6847 126.647 22.8165H133.891ZM151.881 2.87922C151.881 6.66258 150.611 14.08 148.072 25.1314C151.059 22.9908 153.747 21.9205 156.137 21.9205C158.576 21.9205 160.642 22.941 162.335 24.982C164.077 26.9733 164.948 30.0348 164.948 34.1666C164.948 41.0862 163.579 46.4377 160.841 50.221C158.153 54.0044 154.867 55.8961 150.985 55.8961C149.541 55.8961 148.072 55.7218 146.579 55.3734C145.135 55.0249 144.04 54.6515 143.293 54.2533L142.173 53.7306C138.987 54.8258 135.876 55.3734 132.839 55.3734C132.541 55.1245 132.391 53.9297 132.391 51.7891C132.391 49.5988 133.785 42.4303 136.573 30.2837C139.361 18.0873 140.755 9.749 140.755 5.26871C140.755 4.47221 140.63 3.4517 140.381 2.20717C144.264 0.863082 147.973 0.191038 151.507 0.191038C151.756 0.887973 151.881 1.78403 151.881 2.87922ZM151.209 28.2676C150.263 28.2676 148.844 28.7156 146.952 29.6117C144.662 39.2692 143.418 46.1887 143.219 50.3704C144.712 51.0175 146.131 51.3411 147.475 51.3411C149.367 51.3411 150.935 49.5988 152.179 46.1141C153.474 42.6294 154.121 38.7963 154.121 34.6147C154.121 30.3833 153.15 28.2676 151.209 28.2676ZM169.015 49.3996C169.015 47.259 169.663 43.625 170.957 38.4976C172.251 33.3203 172.898 30.1592 172.898 29.0143C172.898 27.8195 172.002 26.2514 170.21 24.31L170.285 23.3392C173.67 22.6423 178.125 22.2938 183.651 22.2938C183.9 22.941 184.024 24.1108 184.024 25.8034C184.024 27.496 183.327 31.1051 181.934 36.6308C180.54 42.1565 179.843 45.5914 179.843 46.9355C179.843 48.2796 180.341 48.9516 181.336 48.9516C182.78 48.9516 184.448 48.4289 186.339 47.3835C186.538 46.1888 187.036 43.8988 187.833 40.5137C189.625 32.5487 190.521 26.8488 190.521 23.4139C192.263 22.717 195.399 22.3685 199.929 22.3685H201.348C201.348 24.7082 200.651 29.2881 199.257 36.1081C197.864 42.8783 197.167 46.8608 197.167 48.0555C197.167 49.2005 197.415 49.773 197.913 49.773C198.212 49.773 199.631 49.1756 202.17 47.9809L203.588 50.3704C199.158 54.0542 195.275 55.8961 191.94 55.8961C190.347 55.8961 188.978 55.448 187.833 54.552C186.737 53.6559 186.115 52.4861 185.966 51.0424C181.934 54.328 178.275 55.9707 174.989 55.9707C173.247 55.9707 171.803 55.3982 170.658 54.2533C169.563 53.1083 169.015 51.4904 169.015 49.3996ZM241.075 50.445C236.844 54.0791 233.11 55.8961 229.874 55.8961C226.688 55.8961 224.847 54.3031 224.349 51.1171C222.855 52.6105 221.188 53.7804 219.346 54.6266C217.504 55.4729 215.886 55.8961 214.492 55.8961C212.103 55.8961 210.062 54.8507 208.369 52.7599C206.677 50.669 205.83 47.4333 205.83 43.0525C205.83 36.4814 207.224 31.3291 210.012 27.5955C212.8 23.8122 215.936 21.9205 219.42 21.9205C222.955 21.9205 225.917 22.717 228.306 24.31C229.85 16.2454 230.621 9.89835 230.621 5.26871L230.248 2.1325C233.981 0.838192 237.64 0.191038 241.225 0.191038C241.623 1.03732 241.822 2.00805 241.822 3.10323C241.822 6.73725 240.727 14.1297 238.536 25.2807C236.346 36.3819 235.251 43.9237 235.251 47.9062C235.251 49.1009 235.525 49.6983 236.072 49.6983C236.371 49.6983 237.317 49.2254 238.91 48.2796L239.656 47.8315L241.075 50.445ZM223.079 26.3261C221.337 26.3261 219.819 28.0435 218.524 31.4784C217.28 34.9133 216.658 38.3233 216.658 41.7085C216.658 45.0438 216.882 47.1844 217.33 48.1302C217.827 49.0761 218.549 49.549 219.495 49.549C221.138 49.549 222.756 48.8769 224.349 47.5328C224.498 45.5416 225.618 38.9207 227.709 27.6702C226.016 26.7741 224.473 26.3261 223.079 26.3261Z" fill="#0D6EFD"/>
</svg>
