<svg width="274" height="195" viewBox="0 0 274 195" fill="none" xmlns="http://www.w3.org/2000/svg">
<rect width="274" height="195" fill="#D9D9D9"/>
<path d="M193 116.667L173.798 97.4649C171.465 95.1319 168.3 93.8213 165 93.8213C161.7 93.8213 158.535 95.1319 156.202 97.4649L99.6667 154M93.4444 42H180.556C187.428 42 193 47.5716 193 54.4444V141.556C193 148.428 187.428 154 180.556 154H93.4444C86.5716 154 81 148.428 81 141.556V54.4444C81 47.5716 86.5716 42 93.4444 42ZM130.778 79.3333C130.778 86.2062 125.206 91.7778 118.333 91.7778C111.46 91.7778 105.889 86.2062 105.889 79.3333C105.889 72.4605 111.46 66.8889 118.333 66.8889C125.206 66.8889 130.778 72.4605 130.778 79.3333Z" stroke="#959595" stroke-width="12.4444" stroke-linecap="round" stroke-linejoin="round"/>
</svg>
